<svg width="824" height="320" viewBox="0 0 824 320" fill="none" xmlns="http://www.w3.org/2000/svg">
<path d="M733.714 221.281C733.714 220.555 733.076 219.969 732.286 219.969C731.496 219.969 730.857 220.555 730.857 221.281V227.188H724.429C723.638 227.188 723 227.774 723 228.5C723 229.226 723.638 229.812 724.429 229.812H730.857V235.719C730.857 236.445 731.496 237.031 732.286 237.031C733.076 237.031 733.714 236.445 733.714 235.719V229.812H740.143C740.933 229.812 741.571 229.226 741.571 228.5C741.571 227.774 740.933 227.188 740.143 227.188H733.714V221.281Z" fill="#2CB67D"/>
<g filter="url(#filter0_f_1474_2)">
<path d="M722 218H744V240H722V218Z" fill="#2CB67D"/>
</g>
<g clip-path="url(#clip0_1474_2)">
<path d="M715.357 75.5625C715.357 75.2168 715.038 74.9375 714.643 74.9375C714.248 74.9375 713.929 75.2168 713.929 75.5625V78.375H710.714C710.319 78.375 710 78.6543 710 79C710 79.3457 710.319 79.625 710.714 79.625H713.929V82.4375C713.929 82.7832 714.248 83.0625 714.643 83.0625C715.038 83.0625 715.357 82.7832 715.357 82.4375V79.625H718.571C718.967 79.625 719.286 79.3457 719.286 79C719.286 78.6543 718.967 78.375 718.571 78.375H715.357V75.5625Z" fill="#2CB67D"/>
</g>
<g filter="url(#filter1_f_1474_2)">
<path d="M707 72H722V87H707V72Z" fill="#2CB67D"/>
</g>
<path d="M120 105.688C120 104.65 119.106 103.812 118 103.812C116.894 103.812 116 104.65 116 105.688V114.125H107C105.894 114.125 105 114.963 105 116C105 117.037 105.894 117.875 107 117.875H116V126.312C116 127.35 116.894 128.188 118 128.188C119.106 128.188 120 127.35 120 126.312V117.875H129C130.106 117.875 131 117.037 131 116C131 114.963 130.106 114.125 129 114.125H120V105.688Z" fill="#2CB67D"/>
<g filter="url(#filter2_f_1474_2)">
<rect x="100" y="100" width="36" height="32" fill="#2CB67D"/>
</g>
<defs>
<filter id="filter0_f_1474_2" x="642" y="138" width="182" height="182" filterUnits="userSpaceOnUse" color-interpolation-filters="sRGB">
<feFlood flood-opacity="0" result="BackgroundImageFix"/>
<feBlend mode="normal" in="SourceGraphic" in2="BackgroundImageFix" result="shape"/>
<feGaussianBlur stdDeviation="40" result="effect1_foregroundBlur_1474_2"/>
</filter>
<filter id="filter1_f_1474_2" x="657" y="22" width="115" height="115" filterUnits="userSpaceOnUse" color-interpolation-filters="sRGB">
<feFlood flood-opacity="0" result="BackgroundImageFix"/>
<feBlend mode="normal" in="SourceGraphic" in2="BackgroundImageFix" result="shape"/>
<feGaussianBlur stdDeviation="25" result="effect1_foregroundBlur_1474_2"/>
</filter>
<filter id="filter2_f_1474_2" x="0" y="0" width="236" height="232" filterUnits="userSpaceOnUse" color-interpolation-filters="sRGB">
<feFlood flood-opacity="0" result="BackgroundImageFix"/>
<feBlend mode="normal" in="SourceGraphic" in2="BackgroundImageFix" result="shape"/>
<feGaussianBlur stdDeviation="50" result="effect1_foregroundBlur_1474_2"/>
</filter>
<clipPath id="clip0_1474_2">
<rect width="10" height="10" fill="white" transform="translate(710 74)"/>
</clipPath>
</defs>
</svg>
